<?xml version="1.0" encoding="iso-8859-1"?>
<!-- Generator: Adobe Illustrator 19.0.1, SVG Export Plug-In . SVG Version: 6.00 Build 0)  -->
<svg version="1.1" id="Capa_1" xmlns="http://www.w3.org/2000/svg" xmlns:xlink="http://www.w3.org/1999/xlink" x="0px" y="0px"
	 viewBox="0 0 98.865 77.698" style="enable-background:new 0 0 98.865 77.698;" xml:space="preserve">
<style type="text/css">
	.st0{fill-rule:evenodd;clip-rule:evenodd;fill:#002D73;}
	.st1{fill-rule:evenodd;clip-rule:evenodd;fill:#A1DAF8;}
	.st2{fill:#FFCC00;}
</style>
<g>
	<g>
		<path class="st0" d="M58.028,27.322c0.477,0.141,0.787-0.05,0.935-0.578l0.371-1.326c1.087-3.878,2.44-6.697,4.065-8.456
			l0.307,0.092c0.252,1.746,0.055,4.716-0.594,8.912c-0.233,1.459-0.078,2.27,0.452,2.428c0.377,0.112,1.313-1.106,2.815-3.651
			c1.969-2.544,3.621-3.901,4.949-4.078c0.365,0.306,0.359,1.421-0.023,3.343c-0.358,1.28-0.98,2.56-1.865,3.843
			c0.198,0.384,0.359,0.592,0.484,0.629l0.373-0.09c1.1-1.531,1.811-2.879,2.137-4.045c0.035-0.217,0.066-0.426,0.094-0.628
			c0.211-1.547,0.211-2.679,0-3.394c-0.115-0.392-0.293-0.659-0.536-0.801l-0.099-0.03l-0.129,0.058
			c-2.435,0.392-4.797,2.269-7.082,5.639l-0.104-0.031c0.718-6.417,0.575-9.778-0.431-10.078c-1.125,0.201-2.514,1.801-4.157,4.794
			l-0.203-0.06l-0.004-0.774c-0.059-2.53-0.289-4.127-0.688-4.791l-0.104-0.031l-0.252,0.113l-0.222,0.79
			c0.118,4.676-0.038,7.787-0.472,9.337C57.552,26.223,57.542,27.177,58.028,27.322z"/>
		<path class="st0" d="M51.092,23.278h0.121c0.69,0.831,1.509,1.423,2.455,1.778c0.709,0.266,1.488,0.398,2.341,0.398
			c0.692,0,1.036-0.156,1.036-0.469l-0.234-0.374c-1.292,0-2.338-0.246-3.143-0.736c-0.553-0.338-0.992-0.791-1.316-1.36
			c0.023-0.312,0.098-0.468,0.234-0.468c0.389-0.444,0.749-0.88,1.082-1.31c1.874-2.413,2.882-4.597,3.027-6.549
			c-0.291-1.765-1.053-2.649-2.283-2.649c-0.283,0.056-0.531,0.133-0.744,0.232c-0.148,0.069-0.279,0.149-0.395,0.241
			c-1.992,1.978-2.989,4.315-2.989,7.011v0.653c0,0.913,0.235,1.925,0.693,3.033l-0.693,0.762v0.085h0.241L51.092,23.278z
			 M51.664,19.398c0.418-3.393,1.086-5.538,2.004-6.435c0.328-0.321,0.69-0.481,1.082-0.481h0.234c0.309,0,0.543,0.411,0.688,1.234
			c0,1.084-0.344,2.408-1.025,3.979c-0.342,0.684-0.668,1.284-0.979,1.798c-0.627,1.041-1.185,1.736-1.672,2.081
			c-0.223-0.416-0.332-1.05-0.332-1.897V19.398z"/>
		<path class="st0" d="M73.236,11.999h0.175c1.121,0,2.668,0.919,4.643,2.756c1.1,1.024,2.331,2.333,3.696,3.927v0.08l-0.078,0.064
			c-1.518-0.669-2.724-1.102-3.618-1.296c-0.369-0.08-0.685-0.121-0.947-0.121c-0.484,0-0.857,0.045-1.119,0.133
			c-1.664,0.583-2.498,1.269-2.498,2.064l0.176,0.647c1.151,1.279,2.446,1.919,3.875,1.919c0.168,0,0.34-0.013,0.514-0.039
			c1.118-0.166,2.349-0.865,3.696-2.094h0.175l0.769,0.491c0.198,0.476,0.461,0.716,0.783,0.716l0.336-0.213v-0.145
			c0-0.236-0.34-0.898-1.021-1.984l0.335-0.792v-0.137l-0.257-0.076l-0.512,0.358c-1.598-1.786-3.033-3.209-4.305-4.272
			c-1.874-1.565-3.395-2.347-4.564-2.347c-0.465,0.088-0.786,0.178-0.961,0.267c-0.105,0.054-0.158,0.107-0.158,0.16v0.076
			l0.158-0.026L73.236,11.999z M80.805,19.688c-1.105,0.886-2.023,1.379-2.752,1.475c-0.089,0.011-0.174,0.018-0.256,0.018h-0.945
			c-0.82,0-1.336-0.358-1.553-1.07v-0.502c0-0.735,0.544-1.184,1.631-1.348c0.355,0,0.73,0.044,1.123,0.131
			c0.836,0.185,1.754,0.569,2.752,1.153V19.688z"/>
		<path class="st0" d="M95.74,18.786c-0.697-0.163-1.793-0.121-3.297,0.126c-2.686,1.114-4.298,2.837-4.842,5.178l-0.23-0.053
			l-0.232-1.147c-1.502-4.279-2.129-6.961-1.875-8.053l0.109-0.47c-0.004-0.137-0.164-0.306-0.486-0.512
			c-0.556-0.037-0.848,0.031-0.885,0.192l-0.088,0.378l0.67,1.263c0.52,3.366,1.104,6.237,1.746,8.605
			c0.407,3.15,0.72,4.758,0.944,4.83l0.457,0.106c0.169,0.01,0.36-0.11,0.568-0.368c-0.019-0.952,0.113-2.053,0.404-3.306
			l0.044-0.189c0.597-2.562,2.005-4.27,4.225-5.122c2.062-0.526,3.106-0.851,3.136-0.976C96.086,19.046,95.959,18.886,95.74,18.786z
			"/>
		<path class="st0" d="M23.076,31.201c0.176,0.132,0.362,0.236,0.558,0.312c0.266,0.104,0.551,0.157,0.854,0.157h0.003h0.003
			l0.005-0.001l0.888-0.156l0.004-0.001l0.006-0.002c1.25-0.498,2.188-1.178,2.812-2.04c0.197-0.272,0.363-0.561,0.498-0.869
			c0.294-0.67,0.44-1.425,0.44-2.265v-0.511c0-0.439-0.073-0.93-0.223-1.473c-0.06-0.22-0.133-0.448-0.218-0.686
			c-0.124-0.346-0.273-0.71-0.451-1.094l-0.002-0.004l-0.003-0.003c-0.493-0.702-1.013-1.287-1.556-1.756
			c-0.271-0.235-0.549-0.44-0.832-0.616c-0.852-0.529-1.758-0.794-2.717-0.794h-0.001h-0.166c-0.571,0-0.985,0.17-1.243,0.506
			c-0.051,0.066-0.095,0.138-0.133,0.216c-0.038,0.078-0.069,0.162-0.096,0.252v0.002l-0.018,0.062h0.064h0.086h0.019l0.014-0.014
			c0.197-0.191,0.389-0.333,0.577-0.428c0.184-0.093,0.367-0.14,0.546-0.14c0.609,0,1.33,0.19,2.156,0.565
			c0.162,0.073,0.328,0.154,0.496,0.241c0.168,0.087,0.342,0.181,0.518,0.282c0.761,0.716,1.332,1.45,1.711,2.2
			c0.381,0.75,0.57,1.519,0.57,2.307v1.545c-0.378,1.283-0.875,2.244-1.488,2.883c-0.611,0.636-1.342,0.955-2.189,0.955v-0.001
			c-0.923,0-1.603-0.723-2.034-2.166c-0.086-0.284-0.161-0.596-0.227-0.935c-0.066-0.34-0.122-0.708-0.169-1.102v-0.004v-0.135
			c0-0.457,0.035-0.904,0.107-1.342c0.071-0.439,0.18-0.869,0.325-1.292l0.006-0.018l-0.008-0.018
			c-0.062-0.129-0.139-0.225-0.232-0.29c-0.096-0.065-0.206-0.098-0.334-0.098h-0.008l-0.008,0.003
			c-0.33,0.118-0.568,0.666-0.713,1.639c-0.027,0.185-0.051,0.388-0.072,0.609c-0.022,0.221-0.039,0.456-0.054,0.705l-0.001,0.013
			v0.003v0.597v0.003l0.001,0.005C21.536,29.131,22.178,30.528,23.076,31.201z"/>
		<path class="st0" d="M28.706,18.173c0.016,0.005,0.03,0.007,0.045,0.008c1.272,4.176,1.946,7.745,2.02,10.715
			c0.005,0.38,0.167,0.623,0.477,0.723l0.357-0.016c0.326-0.012,0.764-1.329,1.299-3.945c0.98-3.344,2.159-5.805,3.526-7.389
			l0.12-0.015c0.019,1.108,0.615,3.146,1.775,6.121c0.944,1.458,1.92,2.44,2.93,2.948c0.594,0.298,1.198,0.434,1.815,0.405
			l0.466-0.124l-0.011-0.309c-0.004-0.118-0.481-0.346-1.433-0.671c-0.287-0.131-0.566-0.308-0.838-0.531
			c-0.982-0.809-1.864-2.225-2.649-4.25c-0.761-3.81-1.312-5.706-1.648-5.693l-0.354,0.019c-2.171,2.275-3.767,5.179-4.777,8.702
			l-0.232,0.015c-0.02-0.77-0.491-2.356-1.407-4.756c-0.391-2.225-0.724-3.333-0.998-3.328l-0.463,0.029
			c-0.007,0.001-0.014,0.003-0.021,0.004c-0.167,0.042-0.312,0.222-0.439,0.544C28.403,17.862,28.548,18.126,28.706,18.173z"/>
		<path class="st0" d="M39.546,14.703h0.35c0.453-0.333,0.907-0.627,1.36-0.879c0.923-0.514,1.846-0.861,2.768-1.039
			c-0.475,5.58-1.394,8.894-2.768,9.94c-0.316,0.242-0.657,0.362-1.022,0.362v0.17l0.35,0.075c0.227,0,0.452-0.05,0.672-0.15
			c0.877-0.399,1.688-1.591,2.43-3.578c0.572-2.531,0.91-3.807,1.024-3.823c0.235,2.858,0.503,4.739,0.807,5.646
			c0.354,1.317,1.162,2.457,2.409,3.409h0.356c0.303,0,0.602-0.389,0.904-1.164h-0.098v-0.169h-0.12l-0.686,0.169
			c-0.189-0.05-0.498-0.352-0.922-0.911c-0.749-1.027-1.402-4.49-1.963-10.389v-0.083l3.457-1.665v-0.17l-0.12-0.071
			c-0.304,0-1.488,0.331-3.554,0.995l-0.121-0.585V8.137c0-3.053-0.344-4.577-1.035-4.577c-0.384,0-0.572,0.253-0.572,0.754v1.988
			c0,1.061,0.189,2.862,0.572,5.401c0,0.197-0.924,0.69-2.768,1.476c-0.141,0.06-0.287,0.122-0.438,0.186
			c-1.232,0.244-1.844,0.497-1.844,0.754C38.974,14.339,39.163,14.533,39.546,14.703z"/>
		<path class="st0" d="M78.805,48.797l6.499-4.477l1.097-3.127l-0.084-2.028l-2.025-0.591l-4.978,1.352
			c-0.755,0.686-1.485,1.322-2.186,1.9l-3.59-2.674l-0.183-3.843c1.381-1.16,2.641-1.891,2.863-3.661l4.691-3.233l0.793-2.257
			l-0.062-1.465l-1.462-0.427l-3.596,0.977c-1.469,1.336-2.81,2.413-3.96,3.111c-2.163,1.953-3.932,3.905-5.606,5.857l-3.087-1.438
			l-2.152-1.002l-5.241-2.074c-1.584-0.514-3.291-0.625-4.936-0.793l-2.499-3.417l-2.681,3.172
			c-5.279,0.938-11.375,1.463-14.441,3.295c-2.769,2.263-5.063,4.684-7.359,7.104c-4.077-1.757-6.122-5.68-6.122-11.773v-1.142
			c0-1.807,0.691-7.184,2.062-16.129c-0.031-0.137-0.274-0.274-0.729-0.412c-0.498,0-0.891,0.208-1.184,0.62l-2.646,7.019
			c-0.691,1.462-1.72,2.476-3.084,3.039c-1.033,0-2.117-1.329-3.251-3.986c-1.302-4.185-2.181-6.28-2.642-6.28H6.879l-0.891,0.208
			C3.832,15.31,2.756,21.032,2.756,27.387c0,3.083,0.977,5.208,2.939,6.386h0.293l0.305-0.208v-0.107
			c-1.47-1.328-2.205-3.211-2.205-5.642c0-3.185,0.785-8.003,2.354-14.455h0.144c1.184,5.518,3.09,8.277,5.731,8.277h0.148
			c2.273,0,3.943-1.151,5.015-3.463h0.15v0.119c-0.498,3.277-0.748,5.682-0.748,7.21v2.312c0,3.002,0.785,5.894,2.355,8.68
			c1.918,2.181,3.875,3.551,5.874,4.109l1.205,1.598c1.858,0.976,3.098,1.831,4.022,3.051c0.489,0.062,0.99,0.171,1.504,0.32
			c-5.63,0.867-11.138,1.753-14.308,3.645c-4.045,3.306-7.36,6.857-10.717,10.393l2.87,3.804c2.572,1.35,4.289,2.536,5.569,4.227
			c2.518,0.324,5.302,1.532,8.271,3.21c2.572,0.724,5.162,1.613,8.018,2.28c2.094-0.239,4.262-0.576,6.584-0.59
			c2.248,0.986,2.87,0.957,6.159-0.084c1.029,0.238,2.338,1.239,3.418,1.478c1.084,0.238,2.111,0.311,3.083-0.041l-1.521-4.987
			c2.602-2.281,5.275-4.449,8.103-6.507l3.375-0.675l2.363,0.591l0.822-0.085l3.312-0.338l2.955,2.62
			c3.01,2.057,3.847,3.001,8.769,5.112c2.029,0.876,4.056,1.458,6.083,1.393l0.76-1.52l-0.024-2.343l-10.693-7.966l-0.254-5.324
			C76.753,52.263,78.497,51.249,78.805,48.797z M66.061,52.347l-2.131-0.992l-5.127-2.387l-3.477-1.376l-0.434-1.423
			c1.877-1.647,3.807-3.213,5.849-4.698l2.436-0.487l0.752,0.188l0.955,0.239l2.984-0.305l2.133,1.891
			c1.217,0.83,1.941,1.41,2.966,2.027C70.356,47.465,68.157,49.907,66.061,52.347z"/>
	</g>
	<g>
		<polygon class="st1" points="81.114,25.348 80.548,25.49 80.548,26.55 81.184,26.126 		"/>
		<path class="st1" d="M77.341,26.644l-0.036,0.435l0.977,1.771l2.098-1.012l-0.904-2.279
			C79.474,25.559,77.341,26.535,77.341,26.644z"/>
		<polygon class="st1" points="74.809,28.597 73.833,28.995 74.05,29.537 74.954,31.056 77.196,29.682 75.569,27.873 		"/>
		<path class="st1" d="M75.714,31.96l-0.507-0.398c0,0-1.157,1.193-1.121,1.266l0.542,0.615l0.832-0.651L75.714,31.96z"/>
		<path class="st1" d="M74.05,31.815l-1.736-1.482L70.65,31.96c-0.072,0.036,1.518,1.772,1.518,1.772L74.05,31.815z"/>
		<path class="st1" d="M71.699,36.011l0.868,0.543l0.543-1.772l-0.797-0.253c0,0-0.831,1.012-0.759,1.049L71.699,36.011z"/>
		<polygon class="st1" points="71.157,34.709 69.891,33.732 68.227,35.107 69.819,36.698 		"/>
		<path class="st1" d="M74.05,44.365c-0.011-0.022,0.079,0.047,0.21,0.154l2.454-1.517l-0.855-0.699L74.05,44.365z"/>
		<polygon class="st1" points="73.073,40.423 71.663,41.905 73.544,43.171 74.7,41.508 		"/>
		<path class="st1" d="M70.614,37.529l-1.375,1.7c0-0.036,1.99,1.591,1.99,1.591l1.699-1.664L70.614,37.529z"/>
		<path class="st1" d="M66.346,37.313l-0.832,1.157c-0.072,0,2.531,0.977,2.531,0.977l1.049-1.88l-2.35-1.266L66.346,37.313z"/>
		<path class="st1" d="M50.144,40.564c0,0-2.433-0.898-2.408-0.875l-1.205,1.868l2.315,1.135L50.144,40.564z"/>
		<polygon class="st1" points="45.469,41.865 46.578,39.453 45.822,39.028 44.596,41.345 		"/>
		<polygon class="st1" points="44.445,44.083 45.181,45.322 46.879,45.391 47.192,44.064 44.523,43.685 		"/>
		<polygon class="st1" points="47.723,45.459 50.44,45.863 51.089,44.111 48.16,43.591 		"/>
		<path class="st1" d="M51.397,46.002c-0.017-0.033,0.206,0.197,0.344,0.341l0.176,0.079l1.652-0.703l1.299-0.166l-1.44-1.466
			L51.397,46.002z"/>
		<path class="st1" d="M65.848,40.824l1.086-0.402l-1.889-0.804C65.069,39.595,65.848,40.824,65.848,40.824z"/>
		<path class="st1" d="M54.206,42.266l-2.126-1.892l-1.748,1.703c0.024,0,1.843,1.584,1.843,1.584L54.206,42.266z"/>
		<path class="st1" d="M54.182,43.402l1.583,1.561L57.701,43l-1.677-1.395C56.025,41.675,54.182,43.402,54.182,43.402z"/>
		<path class="st1" d="M57.205,40.777c-0.023,0.048,1.629,1.514,1.629,1.514l2.032-1.608l-2.22-1.584L57.205,40.777z"/>
		<path class="st1" d="M58.244,37.49c-0.023,0,2.48,1.064,2.48,1.064l1.016-2.152l-2.575-1.064L58.244,37.49z"/>
		<path class="st1" d="M61.928,38.767l-0.709,0.591c0.049-0.047,1.631,0.875,1.631,0.875l1.109-0.213l0.803-1.584l-2.268-0.97
			L61.928,38.767z"/>
		<polygon class="st1" points="65.377,36.237 66.321,35.244 64.149,34.015 63.393,34.889 62.967,35.883 65.282,37.183 		"/>
		<path class="st1" d="M62.614,34.18l-0.095-0.804l-1.819-0.97l-0.874,1.419c-0.023-0.024,2.244,1.229,2.244,1.229L62.614,34.18z"/>
		<polygon class="st1" points="59.307,32.502 59.33,31.579 56.946,30.941 56.616,31.579 56.284,33.116 58.834,33.944 		"/>
		<path class="st1" d="M55.529,30.444c0,0-2.857-0.425-2.834-0.449l-0.259,2.388l2.645,0.402L55.529,30.444z"/>
		<path class="st1" d="M46.153,33.329c0,0-1.181-0.094-1.181-0.047l-0.047,0.686l1.535-0.213L46.153,33.329z"/>
		<path class="st1" d="M47.9,38.389l-0.094-1.04l0.661-1.561c0,0-2.999-0.709-2.975-0.709l-0.685,2.412L47.9,38.389z"/>
		<polygon class="st1" points="52.365,37.396 49.507,36.426 49.459,38.153 49.129,38.625 49.342,39.028 51.561,39.405 		"/>
		<path class="st1" d="M56.284,39.973l0.496-1.182l-2.526-1.443l-1.347,2.034c0.023,0,2.338,1.655,2.338,1.655L56.284,39.973z"/>
		<path class="st1" d="M58.198,35.268c0,0-2.716-1.111-2.692-1.064l-0.874,2.293l2.479,1.04L58.198,35.268z"/>
		<polygon class="st1" points="53.451,36.545 54.182,34.18 51.584,33.282 50.711,35.859 		"/>
		<polygon class="st1" points="50.309,33.92 50.853,32.69 48.113,31.603 47.665,32.502 47.192,33.991 49.789,34.96 		"/>
		<path class="st1" d="M44.05,32.69l2.67-0.425l-0.213-1.3l-0.307-1.088l-1.182,0.378c0,0-1.44-0.118-1.369-0.095l0.117,1.442
			L44.05,32.69z"/>
		<path class="st1" d="M43.131,32.832l-0.779-2.388h-0.686l-0.4,0.308c0,0-1.442,0.189-1.371,0.142l0.425,2.482L43.131,32.832z"/>
		<polygon class="st1" points="36.494,34.227 39.116,33.565 38.384,31.342 37.392,31.413 36.706,31.721 35.927,31.603 
			36.093,32.856 		"/>
		<polygon class="st1" points="41.502,34.133 41.502,36.332 41.949,36.663 44.098,36.497 44.004,34.062 		"/>
		<path class="st1" d="M40.463,34.417c0,0-1.087,0.095-1.087,0.142l-0.142,1.135l1.346-0.024L40.463,34.417z"/>
		<path class="st1" d="M37.462,34.819l0.992,0.686l0.236-0.922C38.691,34.582,37.462,34.795,37.462,34.819z"/>
		<path class="st1" d="M34.18,35.008l1.134-0.473l-1.559-2.057c0,0-2.267,1.253-2.244,1.3l1.559,2.341L34.18,35.008z"/>
		<path class="st1" d="M34.652,36.119l-1.039,0.922c-0.023,0.023,1.606,1.3,1.606,1.3L34.652,36.119z"/>
		<polygon class="st1" points="37.462,38.271 36.4,38.011 35.904,38.484 36.826,38.98 		"/>
		<path class="st1" d="M44.76,38.98l-2.432-0.946l-0.897,2.27c0.047-0.023,1.251,0.804,1.251,0.804l1.275,0.119L44.76,38.98z"/>
		<path class="st1" d="M41.502,37.798l-2.669-1.087l-0.804,2.269c0.048,0,2.551,1.088,2.551,1.088L41.502,37.798z"/>
		<polygon class="st1" points="43.195,41.982 43.862,43.103 44.123,42.408 43.224,41.959 		"/>
		<path class="st1" d="M38.548,41.675c0,0-0.307,1.064-0.33,1.183c0.012,0,0.586,0.273,1.179,0.558l1.715-2.03l-1.666-0.679
			L38.548,41.675z"/>
		<path class="st1" d="M36.99,42.834l1.182-1.915l-2.456-1.159l-1.251,1.608C34.534,41.415,36.99,42.834,36.99,42.834z"/>
		<path class="st1" d="M30.945,39.24c0.07,0.047,2.125,1.773,2.125,1.773l1.701-1.584l-0.851-1.158l-1.299-0.71L30.945,39.24z"/>
		<path class="st1" d="M32.126,36.946l-1.89-1.75l-1.56,1.678c0,0.048,1.631,1.797,1.631,1.797L32.126,36.946z"/>
		<path class="st1" d="M36.199,45.249l2.01-0.429l0.25-0.295c-0.772-0.268-1.789-0.619-1.775-0.604L36.199,45.249z"/>
		<polygon class="st1" points="32.103,43.922 33.872,44.986 34.841,44.773 35.574,43.425 33.424,41.959 		"/>
		<polygon class="st1" points="30.284,40.21 28.749,41.699 29.717,42.621 31.015,43.094 32.409,41.628 		"/>
		<path class="st1" d="M27.662,37.964l-0.661,0.544l0.047,0.402l-0.803,0.851c0,0,1.37,1.419,1.393,1.442l1.867-1.726L27.662,37.964
			z"/>
	</g>
	<g>
		<polygon class="st2" points="36.056,62.951 37.566,59.67 37.599,59.599 37.566,59.58 36.548,59.007 34.956,62.011 34.841,62.228 
			34.956,62.297 		"/>
		<path class="st2" d="M37.566,57.576l1.871,0.543l-0.131-1.446l0.918-2.169c0,0-1.471-0.348-2.658-0.63
			c-0.811-0.193-1.49-0.356-1.478-0.356l-0.952,3.353L37.566,57.576z"/>
		<polygon class="st2" points="34.152,55.49 34.021,52.105 32.411,52.15 30.54,52.203 30.54,55.26 31.164,55.72 32.411,55.624 		"/>
		<path class="st2" d="M37.007,51.086c0,0-1.641-0.131-1.641-0.065L35.3,51.973l2.135-0.296L37.007,51.086z"/>
		<path class="st2" d="M32.411,67.227c0.254,0.115,0.428,0.195,0.428,0.195l0.36-0.986l-0.788-0.772l-0.723-0.707
			c0,0-0.932,1.16-1.197,1.406c-0.022,0.019-0.037,0.033-0.049,0.04c0.002-0.005,0.02-0.003,0.049,0.005
			C30.734,66.474,31.803,66.952,32.411,67.227z"/>
		<path class="st2" d="M35.071,58.942l-0.114-0.045l-2.545-0.989l-0.723-0.281l-1.197,3.031l-0.049,0.124
			c0.005-0.003,0.023,0.003,0.049,0.016c0.287,0.137,1.69,1.102,1.69,1.102l0.229,0.021l1.543,0.143l1.002-2.801L35.071,58.942z"/>
		<path class="st2" d="M34.185,63.707l-1.248-0.624l-0.525,0.407l-0.492,0.381c0.012,0.011,0.219,0.111,0.492,0.241
			c0.555,0.263,1.379,0.646,1.379,0.646L34.185,63.707z"/>
		<path class="st2" d="M49.646,61.801l0.641-0.656l0.804-0.823l0.689-1.643l-1.494-0.853l-1.642-0.937l-0.378-0.216l-0.082,0.125
			L46.396,59.5c0.018,0,0.933,0.65,1.789,1.258l0.46,0.328C49.204,61.485,49.646,61.801,49.646,61.801z"/>
		<path class="st2" d="M48.645,50.213l0.772,0.117l0.624-3.254c0,0-0.636-0.094-1.396-0.21l-0.46-0.07
			c-1.029-0.158-2.102-0.327-2.084-0.344l-0.361,3.319l2.445,0.372L48.645,50.213z"/>
		<polygon class="st2" points="43.344,54.603 47.152,55.556 48.17,52.269 44.558,51.02 43.344,54.602 		"/>
		<path class="st2" d="M40.75,64.102l1.806-2.958c0,0-3.381-1.249-3.349-1.216l-1.641,2.546l-0.033,0.051l0.033,0.016L40.75,64.102z
			"/>
		<polygon class="st2" points="44.525,59.533 45.641,56.74 43.344,55.96 41.67,55.391 41.603,57.791 41.144,58.449 41.439,59.007 
			43.344,59.331 		"/>
		<path class="st2" d="M48.185,63.521l0.017-0.011l-0.017-0.015l-2.938-2.615l-1.904,1.855l-0.525,0.511
			c0.01,0,0.225,0.182,0.525,0.44c0.75,0.643,2.035,1.763,2.035,1.763L48.185,63.521z"/>
		<path class="st2" d="M42.687,69.263l0.656-1.772l0.525-1.417l-0.525-0.093l-3.545-0.63l-0.723,3.089l0.427,0.362
			C39.502,68.802,42.721,69.263,42.687,69.263z"/>
		<path class="st2" d="M75.837,50.39l0.402,0.455l0.353,0.4l1.155-0.905l0.353-1.156l-0.704-0.553c0,0-0.694,0.716-1.156,1.236
			C75.998,50.138,75.82,50.355,75.837,50.39z"/>
		<polygon class="st2" points="69.905,55.769 71.765,53.004 70.006,51.647 68.296,53.059 67.693,53.557 68.296,54.16 		"/>
		<path class="st2" d="M73.348,51.467l2.287-2.331l0.151-0.153l-0.151-0.129l-2.262-1.933l-0.025,0.025l-2.287,2.238
			c-0.101,0.05,2.111,2.463,2.111,2.463L73.348,51.467z"/>
		<path class="st2" d="M72.318,54.21l0.2,0.603l0.83,0.519l0.377,0.235l0.754-2.463l-1.106-0.352l-0.025,0.031
			C73.18,52.99,72.226,54.164,72.318,54.21z"/>
		<polygon class="st2" points="42.786,51.907 43.344,50.644 43.541,50.199 43.344,50.12 39.732,48.686 39.109,49.935 38.452,52.006 
			42.064,53.354 		"/>
		<polygon class="st2" points="75.787,45.815 76.239,46.574 77.044,47.926 80.161,46.016 77.898,43.502 76.842,44.508 
			76.239,44.754 75.636,44.999 75.485,45.061 75.636,45.438 		"/>
		<polygon class="st2" points="85.606,39.991 84.82,40.188 84.82,41.662 85.705,41.073 		"/>
		<path class="st2" d="M84.585,43.452l-1.257-3.167c0,0-2.966,1.357-2.966,1.508l-0.051,0.603l1.357,2.463L84.585,43.452z"/>
		<path class="st2" d="M48.793,55.49l1.494,0.626l1.954,0.82l0.475-0.994l1.035-2.162c0,0-0.448-0.184-1.035-0.421
			c-0.823-0.334-1.92-0.776-2.428-0.966c-0.18-0.067-0.285-0.103-0.279-0.092L48.793,55.49z"/>
		<path class="st2" d="M29.425,65.975l1.067-1.884l0.738-1.304l-0.738-0.301l-2.807-1.145l-0.953,1.028l-0.295,0.319
			c0,0-0.427,1.479-0.459,1.644c0.01,0,0.322,0.147,0.754,0.353C27.747,65.168,29.425,65.975,29.425,65.975z"/>
		<path class="st2" d="M26.305,54.11l0.328-1.282c0,0-0.405,0.07-0.82,0.146c-0.437,0.08-0.887,0.166-0.887,0.183l0.887,0.612
			L26.305,54.11z"/>
		<polygon class="st2" points="54.637,51.941 55.293,49.935 55.326,48.654 52.715,47.955 52.01,47.766 51.551,48.654 51.091,50.79 
			52.715,51.317 		"/>
		<path class="st2" d="M55.096,53.88l-1.279,2.991c-0.033,0,3.445,1.479,3.445,1.479l1.051-2.226l0.361-0.765l-0.361-0.149
			L55.096,53.88z"/>
		<path class="st2" d="M59.134,53.486l0.755-1.216l-0.131-1.118l-1.445-0.77l-1.082-0.578l-1.215,1.972
			c-0.022-0.022,1.365,0.742,2.297,1.256L59.134,53.486z"/>
		<polygon class="st2" points="63.73,55.129 64.481,54.338 65.044,53.748 64.481,53.43 62.023,52.039 60.973,53.255 60.381,54.636 
			63.598,56.444 		"/>
		<path class="st2" d="M26.731,59.363c1.049,0.447,2.528,1.09,2.528,1.09l1.232-3.034l0.049-0.121l-0.049-0.02l-3.661-1.492
			l-0.1,0.279l-0.918,2.599l-0.099,0.278c0.006,0,0.04,0.013,0.099,0.036C25.975,59.042,26.32,59.187,26.731,59.363z"/>
		<path class="st2" d="M48.185,67.127l-1.066-1.085l-2.823,2.662c-0.032-0.066,0.624,0.625,0.624,0.625l2.397-1.019l0.869-0.111
			l0.46-0.059l0.476-0.061l-0.476-0.484L48.185,67.127z"/>
		<path class="st2" d="M34.956,70.428l-1.592-0.212c0,0-0.691,0.88-0.953,1.252c-0.066,0.093-0.104,0.155-0.098,0.161l0.065,0.559
			l0.032-0.005l2.545-0.433l0.902-0.153l-0.033-1.052L34.956,70.428z"/>
		<path class="st2" d="M52.715,61.038l-0.344,0.401c-0.008,0.016,0.131,0.158,0.344,0.36c0.635,0.602,1.922,1.743,1.922,1.743
			l2.823-2.235l-3.087-2.202L52.715,61.038z"/>
		<path class="st2" d="M50.731,62.59c0,0.026-0.18,0.213-0.444,0.475c-0.459,0.454-1.172,1.131-1.642,1.575
			c-0.233,0.221-0.407,0.384-0.46,0.433l-0.016,0.015l0.016,0.016l0.46,0.454l1.642,1.619l0.082,0.081l2.346-2.378l0.346-0.35
			l-0.346-0.287L50.731,62.59z"/>
		<path class="st2" d="M43.344,70.561c-0.916,0.303-1.891,0.625-1.838,0.607l0.262,1.315l1.576-0.748l1.609-0.763l-0.066-0.921
			L43.344,70.561z"/>
		<path class="st2" d="M38.452,66.008l-0.887-0.126l-2.609-0.37l-0.214-0.03c0,0-0.558,2.794-0.558,2.827l0.771,0.134l2.609,0.456
			l0.197,0.035L38.452,66.008z"/>
		<path class="st2" d="M38.157,70.939l-0.525,0.131c-0.099,0.033,2.232,0.854,2.232,0.854l0.558-1.282l-1.379-0.624L38.157,70.939z"
			/>
		<path class="st2" d="M58.937,58.646l-0.624,0.52l-0.361,0.301c0.017-0.016,0.158,0.047,0.361,0.152
			c0.641,0.328,1.904,1.065,1.904,1.065l1.543-0.296l1.115-2.202l-3.151-1.348L58.937,58.646z"/>
		<path class="st2" d="M63.27,59.829c0.033-0.033,1.117,1.676,1.117,1.676l0.094-0.035l1.416-0.523l-1.416-0.602L63.27,59.829z"/>
		<path class="st2" d="M76.239,65.911l-0.452,0.515c-0.02-0.039,0.189,0.128,0.452,0.346c0.412,0.342,0.955,0.811,0.955,0.811
			l2.062,0.251l1.508-2.262L78.3,63.561L76.239,65.911z"/>
		<path class="st2" d="M82.272,66.879l-1.207,1.659c-0.1,0,0.956,1.106,0.956,1.106l2.211,0.151l0.905-2.162l-1.156-0.503
			L82.272,66.879z"/>
		<polygon class="st2" points="76.692,62.455 76.239,62.153 75.636,61.751 74.43,60.946 73.348,62.083 72.47,63.008 73.348,63.6 
			75.083,64.768 75.636,63.973 76.239,63.107 		"/>
		<path class="st2" d="M65.632,55.216l-0.553,1.408l-0.598,0.831l-0.559,0.778c-0.026,0,0.205,0.094,0.559,0.232
			c0.994,0.388,2.961,1.125,2.961,1.125l0.854-1.533l0.603-1.081l-0.603-0.325L65.632,55.216z"/>
		<path class="st2" d="M74.229,59.188l-0.881-0.619l-2.338-1.643l-1.91,2.363c0-0.051,2.766,2.212,2.766,2.212l1.482-1.452
			L74.229,59.188z"/>
		<path class="st2" d="M20.971,57.394c0.451,0.357,0.837,0.66,0.837,0.66l-0.788-3.089l-0.049,0.043l-0.592,0.524l-0.805,0.714
			c-0.013,0.013,0.36,0.32,0.805,0.676C20.572,57.077,20.778,57.24,20.971,57.394z"/>
		<polygon class="st2" points="24.927,57.955 23.45,57.594 22.761,58.251 24.04,58.942 		"/>
		<polygon class="st2" points="32.51,68.605 32.411,68.574 30.492,67.98 28.899,67.488 27.586,70.511 30.492,71.758 30.803,71.892 
			32.411,68.795 		"/>
		<path class="st2" d="M17.688,57.479l-0.607,0.608l-1.215,1.216c0.043,0.028,0.598,0.49,1.215,1.007l0.607,0.508
			c0.607,0.509,1.133,0.951,1.133,0.951l1.559-1.453l0.592-0.551l0.213-0.199l-0.213-0.291L20.38,58.47l-0.377-0.514l-1.806-0.986
			L17.688,57.479z"/>
		<polygon class="st2" points="23.581,52.335 25.813,51.771 26.731,51.539 27.224,51.414 26.731,49.92 26.207,48.324 25.813,48.353 
			24.828,48.424 23.876,48.851 22.794,48.686 23.022,50.428 		"/>
		<path class="st2" d="M30.492,50.844l1.92-0.372l0.395-0.076l-0.395-1.208l-0.689-2.112h-0.951l-0.279,0.213l-0.28,0.214
			c0,0-2.002,0.263-1.904,0.197l0.592,3.451L30.492,50.844z"/>
		<path class="st2" d="M29.096,52.597c0,0-1.51,0.132-1.51,0.197l-0.196,1.578l1.87-0.032L29.096,52.597z"/>
		<path class="st2" d="M34.086,50.199l0.87-0.139l2.609-0.416l0.229-0.037l-0.229-1.405l-0.066-0.402l-0.426-1.512l-1.642,0.526
			c0,0-0.203-0.016-0.476-0.038c-0.586-0.046-1.496-0.116-1.429-0.093l0.164,2.005L34.086,50.199z"/>
		<path class="st2" d="M20.758,62.261c0.014,0.009,0.091,0.055,0.214,0.127c0.764,0.447,3.299,1.912,3.299,1.912l1.543-2.503
			l0.098-0.159l-0.098-0.047l-3.316-1.564l-1.525,1.962L20.758,62.261z"/>
		<path class="st2" d="M17.688,53.263l1.133,1.701l1.543-1.545l0.016-0.007l0.592-0.247l0.968-0.404l-0.968-1.278l-0.592-0.78
			l-0.608-0.801c0,0-1.176,0.65-2.084,1.171c-0.227,0.13-0.438,0.252-0.607,0.354c-0.264,0.158-0.434,0.267-0.427,0.282l0.427,0.641
			L17.688,53.263z"/>
		<polygon class="st2" points="17.901,62.622 17.688,62.48 17.08,62.075 14.946,60.651 13.289,62.259 12.813,62.721 13.289,63.175 
			14.159,64.003 15.964,64.66 17.08,63.487 17.688,62.847 		"/>
		<path class="st2" d="M25.813,66.479c-0.967-0.334-1.987-0.685-1.97-0.668l-0.985,2.696l2.955,1.35l0.426,0.195l0.492-1.181
			l0.756-1.811l-0.756-0.262L25.813,66.479z"/>
		<polygon class="st2" points="20.38,63.81 19.313,63.083 17.688,65.494 17.475,65.811 17.688,65.939 19.936,67.29 20.38,67.193 
			20.971,67.063 21.283,66.994 22.3,65.121 20.971,64.214 		"/>
		<path class="st2" d="M13.863,59.632l-0.574-0.472l-1.986-1.632l-0.92,0.756l0.066,0.559l-1.117,1.183c0,0,1.904,1.972,1.937,2.005
			l2.02-1.868L13.863,59.632z"/>
		<path class="st2" d="M14.979,58.514l2.102-1.994l0.427-0.405L17.08,55.72l-2.199-2.037l-1.592,1.714l-0.575,0.619
			c0,0.021,0.245,0.3,0.575,0.663C13.96,57.419,14.979,58.514,14.979,58.514z"/>
	</g>
</g>
</svg>
